<svg width="455" height="87" viewBox="0 0 455 87" fill="none" xmlns="http://www.w3.org/2000/svg">
<path d="M14.3 85L19.9 53.2L0 1H20.1L31.7 35.2L54.2 1H74.8L37.5 53.5L31.9 85H14.3Z" fill="#FF4D5D"/>
<path d="M50 60C50 37.3 65.8 21.1 88.5 21.1C105.3 21.1 115.1 31.6 115.1 47.7C115.1 70.5 99.3 86.7 77 86.7C59.5 86.7 50 75.8 50 60ZM98.3 48.8C98.3 37.5 94.1 35 86 35C73.1 35 67 44.2 67 58.9C67 69.7 71 72.8 79.3 72.8C92.1 72.9 98.3 63.5 98.3 48.8Z" fill="#FF4D5D"/>
<path d="M155.3 85L156.8 76.3001C151.2 83.4001 144.3 86.7 135.7 86.7C124.9 86.7 118.1 79.7001 118.1 69C118.1 67.4001 118.2 65.6 118.6 63.8L125.8 22.8H142.3L135.5 61.3C135.2 62.9 135 64.3 135 65.6C135 71.4 138.2 72.9001 144 72.9001C152.1 72.9001 157.8 67 159.3 58.7001L165.6 22.8H181.9L170.9 85.1H155.3V85Z" fill="#FF4D5D"/>
<path d="M226.7 85L230.5 63.4C230.8 61.9 230.9 60.5 230.9 59.4C230.9 53.7 227.7 52.2 219.4 52.2H200.7L194.8 85H177.7L192.5 1H235.1C248.9 1 257.1 9.6 257.1 21.5C257.1 32 250.9 41.4 240.6 44.8C246 46.7 248.6 49.6 248.6 55.4C248.6 57 248.3 59.1 248 61.2L243.9 85H226.7ZM207 15.6L203.1 38H225.1C236.1 38 240.2 31.9 240.2 24.6C240.2 17.5 237.2 15.6 229.7 15.6H207Z" fill="#111111"/>
<path d="M254.6 60C254.6 37.3 270.4 21.1 293.1 21.1C309.9 21.1 319.7 31.6 319.7 47.7C319.7 70.5 303.9 86.7 281.6 86.7C264.1 86.7 254.6 75.8 254.6 60ZM303 48.8C303 37.5 298.8 35 290.7 35C277.8 35 271.7 44.2 271.7 58.9C271.7 69.7 275.7 72.8 284 72.8C296.8 72.9 303 63.5 303 48.8Z" fill="#111111"/>
<path d="M358.4 85C358.3 84.2 358.1 83.4 358.1 82.3C358.1 81.4 358.2 80.4 358.4 79.4C353.7 83.7 346.6 86.6 338.3 86.6C325.9 86.6 320.2 80.9 320.2 72.4C320.2 53.9 333.2 49.9 353.1 47.2C364.4 45.7 364.9 43.5 364.9 40.1C364.9 34.8 361.4 33.6 355.4 33.6C347.9 33.6 344.3 37.3 342.6 42.8H327.3C329.8 29.9 338.4 20.9 358.4 20.9C375 20.9 381.3 27.1 381.3 38.4C381.3 40.7 381 43 380.7 45.5L373.7 84.9H358.4V85ZM362.6 54.5C360.7 56.1 357.7 57 351.3 58.2C339.5 60.4 337.1 63.5 337.1 69.3C337.1 73.2 340.1 74.9 344.4 74.9C352.4 74.9 359.8 68.7 361.2 61.4L362.6 54.5Z" fill="#111111"/>
<path d="M424.1 85L425.4 77.4C420.3 83.7 414 86.6 406.4 86.6C393 86.6 384.5 76.9 384.5 60.5C384.5 38.5 397.4 21 416.5 21C424.2 21 429.8 24.2 433.2 30.7L438.6 0H454.8L439.9 85H424.1ZM430.3 49.4C430.3 38.1 426.6 35.2 419.3 35.2C406.5 35.2 401.3 45.5 401.3 58.5C401.3 68.5 405.6 73.3 412.4 73.3C421.6 73.3 430.3 64 430.3 49.4Z" fill="#111111"/>
</svg>
